<?xml version="1.0" encoding="utf-8"?>
<!-- Generator: Adobe Illustrator 16.0.0, SVG Export Plug-In . SVG Version: 6.00 Build 0)  -->
<!DOCTYPE svg PUBLIC "-//W3C//DTD SVG 1.1//EN" "http://www.w3.org/Graphics/SVG/1.1/DTD/svg11.dtd">
<svg version="1.1" id="Layer_1" xmlns="http://www.w3.org/2000/svg" xmlns:xlink="http://www.w3.org/1999/xlink" x="0px" y="0px"
	 width="612px" height="792px" viewBox="0 0 612 792" enable-background="new 0 0 612 792" xml:space="preserve">
<path fill="#6C5D46" stroke="#2F2018" stroke-width="2.4272" stroke-miterlimit="10" d="M216.439,464.723
	c0,0-2.139,7.61,1.619,11.678c1.194,1.291,9.632,7.596,20.858,7.547l2.598-10.669"/>
<path fill="#6C5D46" stroke="#2F2018" stroke-width="2.4272" stroke-miterlimit="10" d="M381.868,464.174
	c0,0,2.618,7.459-0.874,11.755c-0.925,1.14-4.938,5.788-13.316,7.781l-5.563-9.769"/>
<path fill="#6C5D46" stroke="#2F2018" stroke-width="2.4272" stroke-miterlimit="10" d="M323.67,491.805
	c0,0-2.285,7.303,1.888,10.979c2.119,1.866,8.016,5.022,18.18,5.066c11.226,0.05,19.749-5.887,20.861-7.252
	c2.187-2.682-0.814-12.655-0.814-12.655"/>
<path fill="#6C5D46" stroke="#2F2018" stroke-width="2.4272" stroke-miterlimit="10" d="M284.359,491.805
	c0,0,2.285,7.303-1.887,10.979c-2.119,1.866-8.016,5.022-18.18,5.066c-11.226,0.05-18.556-4.595-19.75-5.887
	c-3.757-4.066-0.905-11.917-0.905-11.917"/>
<path fill="#FFFFFF" d="M241.517,448.682c0,0-9.737-4.511-16.889-13.188c-4.589-5.57-6.554-11.633-7.135-17.228
	c-15.731-19.541-7.586-42.487-6.909-47.674c-1.377,3.127-3.573,7.812-12.187,14.568c-4.234-46.36,22.426-83.784,34.771-88.582
	l128.948-5.199c0,0,1.022,0.676,2.72,2.022c6.22,4.938,21.497,18.899,28.676,41.69c8.371,26.575-3.127,42.119-3.127,42.119
	l-0.598-0.01c-0.231,9.409-2.496,20.474-9.868,29.877c-1.404,8.473-5.724,21.444-17.007,32.215h-0.006
	c2.309,21.032,8.14,40.742,4.776,44.418c-4.37,4.766-3.579,6.356-21.858,10.725c-18.275,4.375-26.625-6.355-26.625-6.355
	c-2.93-3.121-2.979-15.467-2.27-27.213c-14.771,3.775-26.078-0.176-26.078-0.176l-0.119,0.012
	c1.045,10.353,1.593,23.646-1.901,27.377c0,0-7.779,7.405-26.621,6.355c-18.769-1.039-21.286-6.497-22.878-9.139
	C236.03,479.834,239.095,465.328,241.517,448.682z"/>
<g id="XMLID_1_">
	<g>
		<radialGradient id="SVGID_1_" cx="299.3716" cy="367.5181" r="151.2953" gradientUnits="userSpaceOnUse">
			<stop  offset="0" style="stop-color:#FFF5EC"/>
			<stop  offset="0.1931" style="stop-color:#FDF3E8;stop-opacity:0.8649"/>
			<stop  offset="0.3555" style="stop-color:#F7EBDD;stop-opacity:0.7512"/>
			<stop  offset="0.5068" style="stop-color:#EFDFCD;stop-opacity:0.6453"/>
			<stop  offset="0.6513" style="stop-color:#E6D0B6;stop-opacity:0.5441"/>
			<stop  offset="0.7912" style="stop-color:#DABD9B;stop-opacity:0.4462"/>
			<stop  offset="0.9255" style="stop-color:#CCA77D;stop-opacity:0.3521"/>
			<stop  offset="1" style="stop-color:#C49A6C;stop-opacity:0.3"/>
		</radialGradient>
		<path fill="url(#SVGID_1_)" d="M217.494,418.267c-15.732-19.542-7.586-42.487-6.909-47.675
			c-1.377,3.127-3.573,7.812-12.187,14.569c-4.233-46.36,22.427-83.784,34.771-88.583l128.948-5.199
			c0,0,22.257,14.705,31.396,43.713c8.371,26.575-3.127,42.121-3.127,42.121l-0.599-0.011c-0.231,9.41-2.494,20.473-9.866,29.877
			c-1.406,8.473-5.724,21.444-17.008,32.214h-0.006c2.309,21.032,8.14,40.744,4.775,44.419c-4.369,4.764-3.578,6.355-21.856,10.725
			c-18.277,4.375-26.626-6.356-26.626-6.356c-2.93-3.121-2.98-15.466-2.269-27.213c-14.772,3.776-26.079-0.175-26.079-0.175
			l-0.118,0.012c1.044,10.352,1.592,23.646-1.902,27.376c0,0-7.778,7.406-26.621,6.356c-18.769-1.039-21.286-6.497-22.878-9.139
			c-3.302-5.464-0.237-19.971,2.185-36.617c0,0-9.737-4.511-16.889-13.187C220.04,429.923,218.076,423.86,217.494,418.267z"/>
	</g>
	<g>
		<path fill="none" stroke="#000000" stroke-width="0.2822" stroke-linecap="round" stroke-linejoin="round" d="M220.503,398.099
			c0,0-4.166,9.172-3.009,20.168c0.582,5.594,2.546,11.656,7.135,17.228c7.152,8.676,16.889,13.187,16.889,13.187"/>
		<path fill="none" stroke="#000000" stroke-width="0.2822" stroke-linecap="round" stroke-linejoin="round" d="M387.151,356.152
			c0,0,2.924,9.218,2.636,21.049c-0.231,9.41-2.494,20.473-9.866,29.877l-0.006,0.006"/>
		<path fill="none" stroke="#000000" stroke-width="0.2822" stroke-linecap="round" stroke-linejoin="round" d="M362.913,439.293
			c11.284-10.77,15.602-23.741,17.008-32.214c0.886-5.356,0.609-8.913,0.191-8.98"/>
		<path fill="none" stroke="#000000" stroke-width="0.2822" stroke-linecap="round" stroke-linejoin="round" d="M319.2,437.216
			c0,0-1.541,11.504-2.269,23.651c-0.712,11.747-0.661,24.092,2.269,27.213c0,0,8.349,10.731,26.626,6.356
			c18.278-4.369,17.487-5.961,21.856-10.725c3.364-3.675-2.467-23.387-4.775-44.419c-0.688-6.271-1.061-12.655-0.79-18.769"/>
		<path fill="none" stroke="#000000" stroke-width="0.2822" stroke-linecap="round" stroke-linejoin="round" d="M289.001,447.568
			c0,0,0.988,5.837,1.733,13.136c1.044,10.352,1.592,23.646-1.902,27.376c0,0-7.778,7.406-26.621,6.356
			c-18.769-1.039-21.286-6.497-22.878-9.139c-3.302-5.464-0.237-19.971,2.185-36.617c1.422-9.776,2.625-20.287,2.185-30.138"/>
		<path fill="none" stroke="#000000" stroke-width="0.2822" stroke-linecap="round" stroke-linejoin="round" d="M290.853,460.692
			c0,0,11.307,3.951,26.079,0.175c0.005-0.006,0.005-0.006,0.011-0.006"/>
		<path fill="none" stroke="#000000" stroke-width="0.2822" stroke-linecap="round" stroke-linejoin="round" d="M217.714,418.543
			c-0.073-0.09-0.152-0.186-0.22-0.276c-15.732-19.542-7.586-42.487-6.909-47.675c-1.377,3.127-3.573,7.812-12.187,14.569
			c-4.233-46.36,22.427-83.784,34.771-88.583l128.948-5.199c0,0,22.257,14.705,31.396,43.713
			c8.371,26.575-3.127,42.121-3.127,42.121"/>
	</g>
</g>
<path fill="#F3E7DC" d="M214.065,461.396c1.598,2.643,5.626,8.096,24.392,9.139l1.09-8.939l2.084-13.73l-8.468-4.345l-10.099-10.074
	l-5.096-12.991C215.509,438.352,210.564,455.601,214.065,461.396z"/>
<path fill="#F3E7DC" d="M376.527,418.696l-14.412,6.958l6.433,47.624c12.839-7.114,14.183-10.172,15.438-12.583
	C387.113,454.689,380.119,436.402,376.527,418.696z"/>
<path opacity="0.3" fill="#C49A6C" d="M350.158,298.695l8.448-2.938c0,0,6.771,1.98,16.726,15.991
	c17.003,20.668,18.075,57.007,18.075,57.007l-3.674-2.822l-4.878,29.636l-4.817,10.16l-17.199,34.162c0,0-1.225-22.857,2.784-31.337
	c4.01-8.478,13.716-41.275,13.716-41.275s-7.556,9.933-10.708,10.528C384.867,340.468,350.158,298.695,350.158,298.695"/>
<path opacity="0.5" fill="#AE9485" d="M389.721,376.97l0.598,0.011c0,0,11.498-15.545,3.127-42.121
	c-7.179-22.789-22.456-36.751-28.676-41.69c-1.456-1.155-2.41-1.813-2.653-1.978l-4.359,4.829c0,0,29.422,25.96,31.353,55.53
	c1.436,21.994-1.931,3.411-6.925-2.759c3.366,17.009,5.397,37.41-1.433,51.688c0,0-1.454-5.56-2.256-9.78
	c-4.279,23.13-7.075,29.733-15.59,40.081c-0.149,2.63,0.065,5.4,0.423,7.479c9.83-10.348,15.204-23.452,16.524-31.414
	C387.226,397.442,389.488,386.379,389.721,376.97z"/>
<path opacity="0.3" fill="#C49A6C" d="M318.506,442.965c-4.615,3.951-21.25,6.788-30.204,5.716l2.548,7.86h25.701L318.506,442.965z"
	/>
<path opacity="0.5" fill="#AE9485" d="M318.506,450.867c0,0-26.629,4.952-28.511,3.51c-1.88-1.439,1.318,6.315,1.318,6.315
	l13.007,1.809l12.231-2.603"/>
<path opacity="0.3" fill="#C49A6C" d="M211.345,373.912c0,0-0.66,19.783,5.604,33.173c0.303,0.648,0.827,1.815,0.827,1.815
	l-0.488,6.037l-7.353-16.84l-1.458-16.479L211.345,373.912z"/>
<path opacity="0.3" fill="#C49A6C" d="M220.219,401.006c0,0,1.088,25.088,23.143,32.175l-2.003,9.784
	c0,0-23.296-19.922-23.13-26.893c-1.717-4.091-1.343-5.091-1.104-8.112C217.5,403.222,220.219,401.006,220.219,401.006z"/>
<path opacity="0.5" fill="#AE9485" d="M218.133,410.673c0,0,8.369,27.601,25.066,28.165l-0.827,9.845
	c0,0-13.848-8.526-16.105-12.667c-2.258-4.14-9.596-12.893-8.938-19.384S218.133,410.673,218.133,410.673z"/>
<path opacity="0.5" fill="#AE9485" d="M208.476,381.618c0,0-0.046,7.534,0,8.381c0.047,0.846,0,7.903,0,7.903
	s5.644,16.266,7.079,17.773c1.436,1.508,1.329-3.221,1.329-3.221S210.342,403.142,208.476,381.618z"/>
<path fill="#F3E7DC" stroke="#3E2723" stroke-width="2.3821" stroke-miterlimit="10" d="M390.869,327.903
	c0,0,26.318-12.651,18.571-42.483c-11.326,12.548-16.093,12.689-16.093,12.689s-0.407-4.51-3.547-11.763
	c-4.107,7.815-6.227,13.577-13.714,17.919"/>
<path fill="none" stroke="#2F2018" stroke-width="2.4272" stroke-miterlimit="10" d="M362.115,291.381
	c0,0,22.254,14.703,31.393,43.71c8.374,26.578-3.123,42.121-3.123,42.121"/>
<path fill="none" stroke="#2F2018" stroke-width="2.4272" stroke-miterlimit="10" d="M217.711,418.541
	c-16.035-19.604-7.813-42.738-7.127-47.95c-1.378,3.13-3.576,7.814-12.186,14.57c-4.239-46.36,22.425-83.786,34.767-88.58"/>
<path fill="none" stroke="#2F2018" stroke-width="2.4272" stroke-miterlimit="10" d="M220.498,398.1c0,0-9.484,20.888,4.126,37.396
	c7.153,8.676,16.89,13.188,16.89,13.188"/>
<path fill="none" stroke="#2F2018" stroke-width="2.4272" stroke-miterlimit="10" d="M387.149,356.152
	c0,0,9.414,29.704-7.236,50.934"/>
<path fill="none" stroke="#2F2018" stroke-width="2.4272" stroke-miterlimit="10" d="M362.906,439.292
	c18.416-17.573,18.283-41.018,17.202-41.192"/>
<path fill="none" stroke="#2F2018" stroke-width="2.4272" stroke-miterlimit="10" d="M362.115,420.526
	c-1.191,26.625,9.935,58.414,5.563,63.184c-4.37,4.769-3.575,6.357-21.854,10.729c-18.28,4.371-26.624-6.357-26.624-6.357
	c-5.962-6.358,0-50.864,0-50.864"/>
<path fill="none" stroke="#2F2018" stroke-width="2.4272" stroke-miterlimit="10" d="M288.999,447.57c0,0,5.792,34.152-0.168,40.511
	c0,0-7.779,7.404-26.625,6.357c-18.765-1.042-21.281-6.496-22.878-9.14c-5.242-8.675,5.563-40.134,4.371-66.758"/>
<path fill="none" stroke="#2F2018" stroke-width="2.4272" stroke-miterlimit="10" d="M238.342,470.535
	c-18.766-1.043-22.794-6.496-24.392-9.139c-3.501-5.796,1.443-23.045,3.903-40.941"/>
<path fill="none" stroke="#2F2018" stroke-width="2.4272" stroke-miterlimit="10" d="M368.701,473.278
	c12.84-7.114,14.184-10.172,15.439-12.583c3.126-6.006-3.867-24.294-7.459-41.999"/>
<path fill="none" stroke="#2F2018" stroke-width="2.4272" stroke-miterlimit="10" d="M290.85,460.695c0,0,11.313,3.949,26.089,0.169
	"/>
<path fill="none" stroke="#2F2018" stroke-width="2.4272" stroke-miterlimit="10" d="M264.703,367.279
	c-0.872,14.173,7.208,25.432,7.208,25.432s1.192-7.55,4.769-15.499c3.917,23.447,14.843,25.434,14.843,25.434
	c0.919-4.37,5.158-12.518,5.158-16.689"/>
<path opacity="0.5" fill="#AE9485" d="M233.913,327.098c-5.64,8.936-7.426,13.133-8.35,24.243
	c-0.325,3.896,2.93,11.161,4.373,11.833c1.213,0.563,2.763,1.552,2.763,1.552s0.264-18.71,2.896-27.087
	c1.677-5.344,2.732-8.305,4.46-9.937c0.395-0.373,2.305-1.769,1.476-3.184C241.033,323.829,236.973,322.989,233.913,327.098
	L233.913,327.098z"/>
</svg>
